<svg width="45" height="45" viewBox="0 0 45 45" fill="none" xmlns="http://www.w3.org/2000/svg">
<path d="M28.5012 16.3761C29.4424 17.0091 30.2482 17.8249 30.8674 18.7721C31.7369 20.1019 32.2424 21.69 32.2424 23.394C32.2424 24.0015 31.7497 24.4947 31.1416 24.4947H16.4276C15.8196 24.4947 15.3269 24.0015 15.3269 23.394C15.3269 21.69 15.8323 20.1019 16.7018 18.7721C17.321 17.8249 18.1273 17.0091 19.0681 16.3761C18.3787 15.4204 17.9721 14.2469 17.9721 12.9782C17.9721 9.76791 20.5744 7.16569 23.7846 7.16569C26.9949 7.16569 29.5971 9.76791 29.5971 12.9782C29.5971 14.2469 29.1905 15.4204 28.5012 16.3761ZM5.79971 5.69184H7.26825V1.59556C7.26825 0.987528 7.76095 0.494827 8.36898 0.494827H34.5289C37.7057 0.494827 40.301 3.08961 40.301 6.26692V43.4044C40.301 44.0125 39.8078 44.5052 39.2003 44.5052H8.36898C7.76095 44.5052 7.26825 44.0125 7.26825 43.4044V39.3082H5.79971C5.19221 39.3082 4.69897 38.8155 4.69897 38.2074V32.1345C4.69897 31.5265 5.19221 31.0338 5.79971 31.0338H7.26825V13.9662H5.79971C5.19221 13.9662 4.69897 13.4735 4.69897 12.8655V6.79257C4.69897 6.18454 5.19221 5.69184 5.79971 5.69184ZM6.90098 7.89331V11.7648H10.3047V7.89331H6.90098ZM6.90098 33.2352V37.1067H10.3047V33.2352H6.90098ZM34.5289 2.6963H9.46972V5.69184H11.4054C12.0135 5.69184 12.5062 6.18454 12.5062 6.79257V12.8655C12.5062 13.4735 12.0135 13.9662 11.4054 13.9662H9.46972V31.0338H11.4054C12.0135 31.0338 12.5062 31.5265 12.5062 32.1345V38.2074C12.5062 38.8155 12.0135 39.3082 11.4054 39.3082H9.46972V42.3037H38.099V6.26692C38.099 4.30515 36.4901 2.6963 34.5289 2.6963ZM19.522 37.8343C18.0742 37.8343 18.0742 35.6328 19.522 35.6328H28.0473C29.4956 35.6328 29.4956 37.8343 28.0473 37.8343H19.522ZM19.522 28.9413C18.0742 28.9413 18.0742 26.7398 19.522 26.7398H28.0473C29.4956 26.7398 29.4956 28.9413 28.0473 28.9413H19.522ZM19.522 33.3878C18.0742 33.3878 18.0742 31.1863 19.522 31.1863H28.0473C29.4956 31.1863 29.4956 33.3878 28.0473 33.3878H19.522ZM20.7349 17.927C19.8505 18.4218 19.0973 19.1271 18.5424 19.9759C18.0922 20.6647 17.7739 21.4492 17.6245 22.2927H29.9447C29.7954 21.4492 29.477 20.6647 29.0268 19.9759C28.4719 19.1271 27.7188 18.4218 26.8349 17.927C25.9484 18.4749 24.9034 18.7907 23.7846 18.7907C22.6658 18.7907 21.6214 18.4744 20.7349 17.927ZM23.7846 9.36716C21.7904 9.36716 20.1736 10.984 20.1736 12.9782C20.1736 14.9724 21.7904 16.5892 23.7846 16.5892C25.7788 16.5892 27.3956 14.9724 27.3956 12.9782C27.3956 10.984 25.7788 9.36716 23.7846 9.36716Z" fill="#D79655"/>
</svg>
