<svg width="50" height="50" viewBox="0 0 50 50" fill="none" xmlns="http://www.w3.org/2000/svg">
<g clip-path="url(#clip0_38_203)">
<path d="M49.5796 19.6123L25.5806 2.3933C25.2336 2.14429 24.7664 2.14429 24.4193 2.3933L0.420293 19.6123C0.158839 19.7938 -2.50376e-05 20.1083 -2.50376e-05 20.4251V46.789C-0.00520431 47.3317 0.451468 47.7932 0.995989 47.7932H49.0039C49.4917 47.7932 49.9201 47.4203 49.9895 46.939C49.9967 46.8894 50.0004 46.839 49.9999 46.7889V20.4251C49.9999 20.1082 49.8411 19.7939 49.5796 19.6123ZM24.4618 19.4291H4.0928L24.9999 4.42845L47.47 20.5504L33.5425 34.4779L25.5806 28.7654C25.2356 28.5177 24.76 28.5209 24.4193 28.7654L16.4574 34.4779L3.40067 21.4211H24.4618C25.0119 21.4211 25.4578 20.9752 25.4578 20.4251C25.4578 19.875 25.0119 19.4291 24.4618 19.4291ZM1.992 22.8297L14.8171 35.6548L4.95773 42.7289L1.992 44.8567V22.8297ZM4.0928 45.8012L4.25295 45.6862L24.9999 30.8005L45.747 45.6862L45.9072 45.8012H4.0928ZM48.0078 44.8567L45.0422 42.7289L35.1828 35.6548L48.0078 22.8297V44.8567Z" fill="#D79655"/>
<path d="M13.8174 40.929L12.5789 41.8176C11.512 42.583 12.7263 44.1636 13.7401 43.4361L14.9787 42.5475C15.4256 42.2269 15.528 41.6046 15.2072 41.1576C14.8866 40.7108 14.2644 40.6083 13.8174 40.929Z" fill="#D79655"/>
<path d="M24.3117 33.3993L17.2074 38.4965C16.1406 39.2619 17.3547 40.8423 18.3687 40.115L25.473 35.0178C25.92 34.6971 26.0224 34.0749 25.7016 33.6279C25.381 33.1809 24.7588 33.0786 24.3117 33.3993Z" fill="#D79655"/>
<path d="M25.6178 33.5107C25.6166 33.5091 25.6152 33.5072 25.6143 33.5059C25.6154 33.5074 25.6164 33.5088 25.6178 33.5107Z" fill="#D79655"/>
<path d="M25.6143 33.5059C25.6072 33.496 25.6082 33.4974 25.6143 33.5059V33.5059Z" fill="#D79655"/>
<path d="M25.7743 33.729C25.7776 33.7338 25.7807 33.738 25.7833 33.7417C25.7808 33.7382 25.7777 33.7339 25.7743 33.729Z" fill="#D79655"/>
<path d="M25.7833 33.7417C25.7962 33.7596 25.7986 33.7631 25.7833 33.7417V33.7417Z" fill="#D79655"/>
<path d="M25.6178 33.5107C25.6298 33.5275 25.6555 33.5633 25.7017 33.6278C25.7367 33.6765 25.7597 33.7086 25.7742 33.7289C25.7342 33.6731 25.6456 33.5495 25.6178 33.5107Z" fill="#D79655"/>
<path d="M29.1979 21.4212H31.5661C32.1162 21.4212 32.5621 20.9753 32.5621 20.4252C32.5621 19.8751 32.1162 19.4292 31.5661 19.4292H29.1979C28.6479 19.4292 28.2019 19.8751 28.2019 20.4252C28.2019 20.9753 28.6479 21.4212 29.1979 21.4212Z" fill="#D79655"/>
</g>
<defs>
<clipPath id="clip0_38_203">
<rect width="50" height="50" fill="white"/>
</clipPath>
</defs>
</svg>
