<svg width="45" height="45" viewBox="0 0 45 45" fill="none" xmlns="http://www.w3.org/2000/svg">
<g clip-path="url(#clip0_9_122)">
<path d="M20.2125 32.325L13.5125 25.625C13.3077 25.3859 13.2007 25.0783 13.2128 24.7637C13.225 24.4491 13.3554 24.1507 13.578 23.928C13.8007 23.7054 14.0991 23.575 14.4137 23.5629C14.7283 23.5507 15.0359 23.6577 15.275 23.8625L20.2125 28.75L31.0125 17.95C31.2516 17.7452 31.5592 17.6382 31.8738 17.6504C32.1884 17.6625 32.4868 17.7929 32.7094 18.0155C32.9321 18.2382 33.0625 18.5366 33.0746 18.8512C33.0868 19.1658 32.9798 19.4734 32.775 19.7125L20.2125 32.325Z" fill="#D79655"/>
<path d="M40.134 7.2H36.1122V9.96923H39.8247V40.4308H5.17523V9.96923H8.88767V7.2H4.86586C4.57658 7.20541 4.29109 7.27453 4.02569 7.40341C3.76029 7.53229 3.52019 7.71841 3.31909 7.95114C3.11798 8.18386 2.95983 8.45864 2.85365 8.75977C2.74747 9.0609 2.69535 9.38248 2.70027 9.70615V40.6938C2.69535 41.0175 2.74747 41.3391 2.85365 41.6402C2.95983 41.9414 3.11798 42.2161 3.31909 42.4489C3.52019 42.6816 3.76029 42.8677 4.02569 42.9966C4.29109 43.1255 4.57658 43.1946 4.86586 43.2H40.134C40.4233 43.1946 40.7088 43.1255 40.9742 42.9966C41.2396 42.8677 41.4797 42.6816 41.6808 42.4489C41.8819 42.2161 42.0401 41.9414 42.1462 41.6402C42.2524 41.3391 42.3045 41.0175 42.2996 40.6938V9.70615C42.3045 9.38248 42.2524 9.0609 42.1462 8.75977C42.0401 8.45864 41.8819 8.18386 41.6808 7.95114C41.4797 7.71841 41.2396 7.53229 40.9742 7.40341C40.7088 7.27453 40.4233 7.20541 40.134 7.2Z" fill="#D79655"/>
<path d="M12.5 12.5C12.8315 12.5 13.1495 12.3683 13.3839 12.1339C13.6183 11.8995 13.75 11.5815 13.75 11.25V3.75C13.75 3.41848 13.6183 3.10054 13.3839 2.86612C13.1495 2.6317 12.8315 2.5 12.5 2.5C12.1685 2.5 11.8505 2.6317 11.6161 2.86612C11.3817 3.10054 11.25 3.41848 11.25 3.75V11.25C11.25 11.5815 11.3817 11.8995 11.6161 12.1339C11.8505 12.3683 12.1685 12.5 12.5 12.5Z" fill="#D79655"/>
<path d="M32.5 12.5C32.8315 12.5 33.1495 12.3683 33.3839 12.1339C33.6183 11.8995 33.75 11.5815 33.75 11.25V3.75C33.75 3.41848 33.6183 3.10054 33.3839 2.86612C33.1495 2.6317 32.8315 2.5 32.5 2.5C32.1685 2.5 31.8505 2.6317 31.6161 2.86612C31.3817 3.10054 31.25 3.41848 31.25 3.75V11.25C31.25 11.5815 31.3817 11.8995 31.6161 12.1339C31.8505 12.3683 32.1685 12.5 32.5 12.5Z" fill="#D79655"/>
<path d="M28.75 7.5H16.25V10H28.75V7.5Z" fill="#D79655"/>
</g>
<defs>
<clipPath id="clip0_9_122">
<rect width="45" height="45" fill="white"/>
</clipPath>
</defs>
</svg>
