<svg width="350" height="350" viewBox="0 0 350 350" fill="none" xmlns="http://www.w3.org/2000/svg">
<g clip-path="url(#clip0_38_139)">
<path d="M152.368 265.234H187.566C190.587 265.234 193.035 262.786 193.035 259.766V180.532H211.322C214.125 180.532 216.475 178.412 216.762 175.624L219.845 145.702C220.004 144.162 219.503 142.627 218.465 141.478C217.428 140.328 215.953 139.673 214.405 139.673H193.035V127.552C193.035 125.049 193.828 124.862 195.037 124.862H213.96C216.98 124.862 219.429 122.413 219.429 119.393V90.3403C219.429 87.3284 216.994 84.8839 213.982 84.8716L187.884 84.7656C169.597 84.7656 159.837 92.8115 154.87 99.5606C147.934 108.985 146.899 120.028 146.899 125.772V139.672H135.627C132.607 139.672 130.158 142.121 130.158 145.141V175.063C130.158 178.083 132.607 180.532 135.627 180.532H146.899V259.766C146.899 262.786 149.347 265.234 152.368 265.234ZM141.095 169.595V150.61H152.367C155.387 150.61 157.836 148.161 157.836 145.141V125.772C157.836 122.228 158.405 113.211 163.678 106.044C168.727 99.1826 176.872 95.7038 187.861 95.7038L208.49 95.7872V113.925H195.035C188.595 113.925 182.096 118.139 182.096 127.553V145.142C182.096 148.162 184.545 150.611 187.565 150.611H208.343L206.387 169.596H187.565C184.545 169.596 182.096 172.044 182.096 175.064V254.297H157.835V175.064C157.835 172.043 155.386 169.595 152.366 169.595H141.095Z" fill="#D79655"/>
<path d="M298.746 51.2586C265.692 18.2041 221.745 0 175 0C128.259 0 84.3131 18.2041 51.2586 51.2586C18.2041 84.3131 0 128.259 0 175C0 221.75 18.2041 265.698 51.2586 298.75C84.311 331.799 128.257 350 175 350C221.748 350 265.694 331.799 298.745 298.75C331.797 265.699 350 221.75 350 175C350 128.257 331.797 84.3117 298.746 51.2586ZM291.011 291.015C260.026 321.999 218.826 339.062 175 339.062C131.178 339.062 89.9787 321.999 58.9921 291.015C28.0034 260.029 10.9375 218.827 10.9375 175C10.9375 131.18 28.0034 89.9814 58.9921 58.9928C89.9814 28.0034 131.18 10.9375 175 10.9375C218.824 10.9375 260.024 28.0034 291.011 58.9921C321.998 89.9801 339.062 131.179 339.062 175C339.062 218.829 321.998 260.03 291.011 291.015Z" fill="#D79655"/>
<path d="M293.971 78.5923C292.068 76.2462 288.625 75.8873 286.279 77.7911C283.933 79.6942 283.575 83.1382 285.478 85.4829C305.926 110.687 317.188 142.478 317.188 175C317.188 212.985 302.398 248.694 275.544 275.547C248.689 302.399 212.983 317.188 175 317.188C139.959 317.188 106.295 304.331 80.2108 280.987C77.9604 278.973 74.5028 279.165 72.489 281.415C70.4751 283.666 70.6665 287.123 72.9169 289.137C101.01 314.279 137.264 328.125 175 328.125C215.904 328.125 254.358 312.199 283.277 283.281C312.198 254.361 328.125 215.906 328.125 175C328.125 139.977 315.995 105.739 293.971 78.5923Z" fill="#D79655"/>
<path d="M32.8125 175C32.8125 96.5979 96.598 32.8125 175 32.8125C210.041 32.8125 243.704 45.6695 269.788 69.0149C272.04 71.0302 275.497 70.8374 277.51 68.5877C279.525 66.3373 279.334 62.8797 277.083 60.8658C248.99 35.7219 212.736 21.875 175 21.875C134.101 21.875 95.6491 37.8034 66.7263 66.7263C37.8034 95.6484 21.875 134.101 21.875 175C21.875 210.027 34.0047 244.267 56.0294 271.413C57.1102 272.745 58.6879 273.436 60.2793 273.436C61.4899 273.436 62.7081 273.036 63.7219 272.214C66.0673 270.311 66.4262 266.867 64.5231 264.521C44.074 239.318 32.8125 207.525 32.8125 175Z" fill="#D79655"/>
</g>
<defs>
<clipPath id="clip0_38_139">
<rect width="350" height="350" fill="white"/>
</clipPath>
</defs>
</svg>
