<svg width="45" height="45" viewBox="0 0 45 45" fill="none" xmlns="http://www.w3.org/2000/svg">
<path d="M19.1967 6.61975C14.0164 6.61975 9.802 10.8342 9.802 16.0144C9.802 21.1947 14.0165 25.4092 19.1967 25.4092C24.377 25.4092 28.5915 21.1947 28.5915 16.0144C28.5915 10.8342 24.377 6.61975 19.1967 6.61975ZM19.1967 23.6164C15.005 23.6164 11.5948 20.2062 11.5948 16.0144C11.5948 11.8227 15.005 8.41258 19.1967 8.41258C23.3884 8.41258 26.7986 11.8227 26.7986 16.0144C26.7986 20.2062 23.3884 23.6164 19.1967 23.6164Z" fill="#D79655"/>
<path d="M11.2189 8.07499C11.4331 8.07499 11.6481 7.99861 11.8196 7.84371C13.8448 6.01395 16.4647 5.0062 19.1967 5.0062C20.724 5.0062 22.2019 5.31278 23.5897 5.91741C24.0435 6.11516 24.5719 5.90755 24.7695 5.45369C24.9673 4.99984 24.7597 4.47158 24.3058 4.27383C22.6908 3.57015 20.9719 3.21338 19.1967 3.21338C16.0198 3.21338 12.9731 4.38535 10.6177 6.51344C10.2503 6.84529 10.2216 7.41218 10.5535 7.77953C10.7304 7.9754 10.9742 8.07499 11.2189 8.07499Z" fill="#D79655"/>
<path d="M9.06656 9.69436C8.6283 9.46426 8.08633 9.63296 7.85622 10.0713C6.90073 11.891 6.39569 13.9461 6.39569 16.0144C6.39569 16.5095 6.79702 16.9109 7.29211 16.9109C7.78719 16.9109 8.18852 16.5095 8.18852 16.0144C8.18852 14.2353 8.62247 12.4684 9.4435 10.9048C9.67361 10.4664 9.50481 9.92447 9.06656 9.69436Z" fill="#D79655"/>
<path d="M41.8165 32.3365C41.8154 32.2975 41.8125 32.2566 41.8062 32.2178L40.9098 26.6601C40.8397 26.2257 40.4648 25.9064 40.0248 25.9064H31.982C34.1249 21.6768 35.211 18.3523 35.211 16.0144C35.2111 7.18404 28.0271 0 19.1967 0C10.3663 0 3.18225 7.18404 3.18225 16.0144C3.18225 24.5694 17.8601 43.8328 18.485 44.6487C18.6546 44.8702 18.9177 45 19.1967 45C19.4757 45 19.7388 44.8701 19.9084 44.6487C19.933 44.6165 22.0144 41.8931 24.6066 38.0899V43.9243C24.6066 44.4194 25.0079 44.8207 25.503 44.8207H40.9213C41.4164 44.8207 41.8177 44.4194 41.8177 43.9243V32.3606C41.8177 32.3524 41.8167 32.3446 41.8165 32.3365ZM39.2615 27.6992L39.8687 31.4641H26.5555L27.1628 27.6992H39.2615ZM25.5144 26.6601L24.6179 32.2178C24.6104 32.2644 24.6066 32.3134 24.6066 32.3606V34.8681C22.3523 38.2966 20.2525 41.1861 19.1967 42.6095C17.9263 40.8963 15.1429 37.0582 12.3884 32.7001C7.53856 25.0267 4.97508 19.2569 4.97508 16.0144C4.97508 8.17261 11.3549 1.79283 19.1967 1.79283C27.0385 1.79283 33.4183 8.17261 33.4183 16.0144C33.4183 18.2124 32.2562 21.5398 29.9651 25.9064H26.3994C25.9594 25.9064 25.5845 26.2257 25.5144 26.6601ZM34.736 43.0279H31.6882V36.9323H34.736V43.0279ZM40.0249 43.0279H36.5289V36.0359C36.5289 35.5408 36.1275 35.1394 35.6325 35.1394H30.7918C30.2967 35.1394 29.8954 35.5408 29.8954 36.0359V43.0279H26.3994V33.257H40.0249V43.0279Z" fill="#D79655"/>
</svg>
