<svg width="45" height="45" viewBox="0 0 45 45" fill="none" xmlns="http://www.w3.org/2000/svg">
<g clip-path="url(#clip0_9_118)">
<path d="M42.563 42.8005H40.9873V40.8086H42.5627C43.1701 40.8086 43.6624 40.3162 43.6624 39.7089C43.6624 33.5734 38.9548 28.5166 32.9622 27.9599V26.0586C32.9622 25.4513 32.4699 24.959 31.8626 24.959C31.2553 24.959 30.7629 25.4513 30.7629 26.0586V27.9599C24.7703 28.5166 20.0628 33.5734 20.0628 39.7089C20.0628 40.3162 20.5551 40.8086 21.1624 40.8086H22.7379V42.8005H21.1624C20.5551 42.8005 20.0628 43.2928 20.0628 43.9001C20.0628 44.5075 20.5551 44.9998 21.1624 44.9998H23.8159C23.8303 45.0001 23.8447 45.0001 23.8591 44.9998H39.8661C39.8732 44.9999 39.8805 45 39.8876 45C39.8948 45 39.902 45 39.9092 44.9998H42.563C43.1703 44.9998 43.6626 44.5075 43.6626 43.9001C43.6626 43.2928 43.1702 42.8005 42.563 42.8005ZM38.7879 42.8005H24.937V40.8086H38.7879V42.8005ZM22.3246 38.6094C22.872 33.8317 26.9407 30.1085 31.8625 30.1085C36.7843 30.1085 40.853 33.8317 41.4004 38.6094H22.3246ZM14.4747 10.7004C11.2436 10.7004 8.71254 12.5488 8.71254 14.9084C8.71254 17.2679 11.2436 19.1162 14.4747 19.1162C17.7058 19.1162 20.2368 17.2679 20.2368 14.9084C20.2368 12.5486 17.7058 10.7004 14.4747 10.7004ZM14.4747 16.9168C12.375 16.9168 10.9118 15.8584 10.9118 14.9083C10.9118 13.9582 12.375 12.8995 14.4747 12.8995C16.5743 12.8995 18.0375 13.9582 18.0375 14.9083C18.0375 15.8583 16.5743 16.9168 14.4747 16.9168ZM17.0647 42.8007H3.5367V7.54941H25.4127V25.8608C25.4127 26.4681 25.905 26.9604 26.5124 26.9604C27.1197 26.9604 27.612 26.4681 27.612 25.8608V6.44976C27.612 5.84243 27.1197 5.35011 26.5124 5.35011H25.9954V1.09975C25.9954 0.785465 25.8609 0.486141 25.6259 0.277427C25.3909 0.0688233 25.0779 -0.0292655 24.7658 0.00779272L2.30696 2.68291C1.75384 2.74878 1.3374 3.21778 1.3374 3.77486V43.9003C1.3374 44.5077 1.82972 45 2.43705 45H17.0647C17.672 45 18.1644 44.5077 18.1644 43.9003C18.1644 43.293 17.672 42.8007 17.0647 42.8007ZM3.5367 4.75124L23.7961 2.33817V5.35022H3.5367V4.75124ZM12.6228 39.65C12.0154 39.65 11.5231 39.1577 11.5231 38.5503C11.5231 37.943 12.0154 37.4507 12.6228 37.4507H16.3265C16.9339 37.4507 17.4262 37.943 17.4262 38.5503C17.4262 39.1577 16.9339 39.65 16.3265 39.65H12.6228Z" fill="#D79655"/>
</g>
<defs>
<clipPath id="clip0_9_118">
<rect width="45" height="45" fill="white"/>
</clipPath>
</defs>
</svg>
