<svg width="50" height="50" viewBox="0 0 50 50" fill="none" xmlns="http://www.w3.org/2000/svg">
<g clip-path="url(#clip0_38_182)">
<path d="M36.7276 31.9891C35.6651 31.3824 34.5634 31.1907 33.6266 31.4507C32.9233 31.6457 32.3499 32.0907 31.9641 32.7391C31.1132 33.7566 30.0581 34.9442 29.804 35.1284C27.828 36.4651 26.2604 36.3068 24.5579 34.6042L14.9857 25.032C13.2815 23.3278 13.1248 21.7586 14.4599 19.7885C14.6465 19.5301 15.8341 18.4759 16.8508 17.6258C17.4992 17.2392 17.9442 16.6666 18.1392 15.9624C18.3984 15.0265 18.2067 13.9257 17.595 12.8531C17.4508 12.6064 14.0207 6.79447 10.8572 5.12189C9.24959 4.27268 7.31116 4.56353 6.02693 5.84859L3.91266 7.96286C-2.25515 14.1315 -1.11342 21.7936 7.21449 30.1206L19.4693 42.3762C23.252 46.1598 26.9171 48.4816 30.3598 49.2774C31.2732 49.4883 32.1682 49.5941 33.0466 49.5941C36.1443 49.5941 39.0211 48.2832 41.627 45.6772L43.7413 43.563C45.0255 42.2787 45.3181 40.3378 44.468 38.7327C42.7946 35.5701 36.9835 32.1382 36.7276 31.9891ZM42.5629 42.3837L40.4487 44.498C34.975 49.9716 28.3122 48.8624 20.6477 41.197L8.39288 28.9414C0.728335 21.2777 -0.382554 14.6157 5.09105 9.14042L7.20532 7.02615C7.67701 6.55446 8.29955 6.30778 8.93041 6.30778C9.3196 6.30778 9.71295 6.40112 10.0771 6.59446C12.8223 8.04703 16.1241 13.6398 16.1516 13.6873C16.5258 14.3432 16.6683 15.0274 16.5325 15.5174C16.4491 15.8174 16.2633 16.0458 15.9624 16.2141L15.8374 16.3008C15.1266 16.8941 13.4348 18.3292 13.0806 18.8517C12.5706 19.6051 12.2322 20.3451 12.0547 21.0727C11.4622 19.891 10.9838 18.5226 10.8263 17.005C10.778 16.5475 10.3705 16.2216 9.91046 16.2616C9.45294 16.3099 9.12042 16.7191 9.16709 17.1775C9.76879 22.9719 14.2757 26.7438 14.4665 26.9013C14.4874 26.9188 14.5124 26.9246 14.534 26.9396L23.3778 35.7834C23.4153 35.8209 23.4536 35.8534 23.4911 35.8893C23.5203 35.9326 23.5395 35.9801 23.5778 36.0184C23.7353 36.1743 27.498 39.8245 33.2441 40.4211C33.2733 40.4236 33.3025 40.4253 33.3308 40.4253C33.7525 40.4253 34.1142 40.1061 34.1592 39.6786C34.2067 39.2203 33.8733 38.8111 33.4158 38.7627C31.6532 38.5802 30.0923 38.0635 28.7914 37.4643C29.4298 37.2727 30.079 36.9543 30.7365 36.5085C31.259 36.1534 32.6941 34.4634 33.2866 33.7525L33.3733 33.6266C33.5416 33.3275 33.77 33.1408 34.07 33.0566C34.5575 32.9241 35.2434 33.0624 35.8909 33.4316C37.4568 34.35 41.7854 37.2318 42.9921 39.5119C43.4996 40.467 43.3263 41.6204 42.5629 42.3837Z" fill="#D79655"/>
<path d="M22.8028 0.405762C22.3419 0.405762 21.9694 0.77828 21.9694 1.23914C21.9694 1.69999 22.3419 2.07251 22.8028 2.07251C36.8802 2.07251 48.3332 13.5256 48.3332 27.603C48.3332 28.0638 48.7058 28.4363 49.1666 28.4363C49.6275 28.4363 50 28.0638 50 27.603C50 12.6064 37.7994 0.405762 22.8028 0.405762Z" fill="#D79655"/>
<path d="M22.8028 7.93091C33.65 7.93091 42.4738 16.7555 42.4738 27.6019C42.4738 28.0627 42.8463 28.4353 43.3072 28.4353C43.768 28.4353 44.1405 28.0627 44.1405 27.6019C44.1405 15.8363 34.5684 6.26416 22.8028 6.26416C22.3419 6.26416 21.9694 6.63668 21.9694 7.09754C21.9694 7.55839 22.3419 7.93091 22.8028 7.93091Z" fill="#D79655"/>
<path d="M22.8028 13.7898C30.4199 13.7898 36.616 19.9868 36.616 27.603C36.616 28.0638 36.9885 28.4364 37.4494 28.4364C37.9102 28.4364 38.2827 28.0638 38.2827 27.603C38.2827 19.0676 31.3382 12.123 22.8028 12.123C22.3419 12.123 21.9694 12.4956 21.9694 12.9564C21.9694 13.4173 22.3419 13.7898 22.8028 13.7898Z" fill="#D79655"/>
</g>
<defs>
<clipPath id="clip0_38_182">
<rect width="50" height="50" fill="white"/>
</clipPath>
</defs>
</svg>
