<svg width="45" height="45" viewBox="0 0 45 45" fill="none" xmlns="http://www.w3.org/2000/svg">
<path d="M11.798 31.7752H2.44315C1.8376 31.7752 1.34653 31.2829 1.34653 30.6755C1.34653 30.0682 1.8376 29.5759 2.44315 29.5759H11.798C12.4036 29.5759 12.8946 30.0682 12.8946 30.6755C12.8946 31.2829 12.4036 31.7752 11.798 31.7752ZM3.18106 2.1993H11.1628C11.7534 2.1993 12.2339 2.68106 12.2339 3.27333C12.2339 3.86582 11.7534 4.3478 11.1628 4.3478H6.0975C4.29763 4.3478 2.83321 5.81616 2.83321 7.62113C2.83321 9.42631 4.29763 10.8949 6.0975 10.8949H9.59965C10.1903 10.8949 10.6708 11.3769 10.6708 11.9694V13.6374C10.6708 14.2448 11.1619 14.7371 11.7674 14.7371C12.373 14.7371 12.8641 14.2448 12.8641 13.6374V11.9694C12.8641 10.1642 11.3996 8.69559 9.59965 8.69559H6.0975C5.50687 8.69559 5.02644 8.21362 5.02644 7.62113C5.02644 7.02896 5.50687 6.5471 6.0975 6.5471H11.1628C12.9627 6.5471 14.4272 5.07852 14.4272 3.27333C14.4272 1.46836 12.9627 0 11.1628 0H3.18106C2.57551 0 2.08444 0.492313 2.08444 1.09965C2.08444 1.70699 2.5754 2.1993 3.18106 2.1993ZM45 17.15V43.9003C45 44.5077 44.5089 45 43.9034 45H6.30772C5.70217 45 5.21111 44.5077 5.21111 43.9003V35.8567H3.63659C3.03104 35.8567 2.53998 35.3644 2.53998 34.7571C2.53998 34.1498 3.03104 33.6574 3.63659 33.6574H16.0968C16.7023 33.6574 17.1934 34.1498 17.1934 34.7571C17.1934 35.3644 16.7023 35.8567 16.0968 35.8567H7.40434V42.8007H42.8068V18.2497H7.40434V25.4943H18.3427C18.9483 25.4943 19.4394 25.9866 19.4394 26.5939C19.4394 27.2013 18.9483 27.6936 18.3427 27.6936H1.09661C0.491064 27.6936 0 27.2013 0 26.5939C0 25.9866 0.491064 25.4943 1.09661 25.4943H5.21111V17.15C5.21111 16.5427 5.70217 16.0504 6.30772 16.0504H16.006V6.44978C16.006 2.8934 18.8913 0 22.4377 0H27.7734C31.32 0 34.2053 2.8934 34.2053 6.44978V16.0505H43.9034C44.5089 16.0504 45 16.5427 45 17.15ZM32.012 6.44978C32.012 4.10609 30.1106 2.1993 27.7734 2.1993H22.4377C20.1005 2.1993 18.1992 4.10609 18.1992 6.44978V16.0505H32.0121V6.44978H32.012ZM24.2157 38.6336L18.9287 32.2907C18.6556 31.9631 18.5964 31.5066 18.7767 31.1198C18.9569 30.7329 19.3443 30.4858 19.7701 30.4858H20.8872C23.6633 25.3818 26.1508 22.0224 29.1069 22.0224C32.0628 22.0224 34.5504 25.3818 37.3266 30.4858H38.4438C38.8696 30.4858 39.2569 30.733 39.4372 31.1198C39.6176 31.5066 39.5583 31.9631 39.2852 32.2907L33.9982 38.6336C33.7899 38.8835 33.4817 39.028 33.1568 39.028H25.0572C24.7322 39.028 24.4241 38.8836 24.2157 38.6336ZM23.3969 30.4858H34.8167C33.0924 27.444 30.9141 24.2217 29.1069 24.2217C27.2997 24.2217 25.1211 27.4441 23.3969 30.4858ZM22.116 32.6851L25.5698 36.8287H32.6441L36.0979 32.6851H22.116Z" fill="#D79655"/>
</svg>
